# AST/ASF file generated using VICON BodyLanguage
# -----------------------------------------------
:version 1.10
:name VICON
:units
  mass 1.0
  length 0.45
  angle deg
:documentation
   .ast/.asf automatically generated from VICON data using
   VICON BodyBuilder and BodyLanguage model FoxedUp or BRILLIANT.MOD
:root
   order TX TY TZ RX RY RZ
   axis XYZ
   position 0 0 0  
   orientation 0 0 0 
:bonedata
  begin
     id 1 
     name lhipjoint
     direction 0.714689 -0.624256 0.315473 
     length 2.45343 
     axis 0 0 0  XYZ
  end
  begin
     id 2 
     name lfemur
     direction 0.34202 -0.939693 0  
     length 6.59069  
     axis 0 0 20  XYZ
    dof rx ry rz
    limits (-160.0 20.0)
           (-70.0 70.0)
           (-60.0 70.0)
  end
  begin
     id 3 
     name ltibia
     direction 0.34202 -0.939693 0   
     length 6.73476   
     axis 0 0 20   XYZ
    dof rx
    limits (-10.0 170.0)
  end
  begin
     id 4 
     name lfoot
     direction 0.0718085 -0.197292 0.977711   
     length 1.52607   
     axis -90 7.62852e-016 20   XYZ
    dof rx rz
    limits (-45.0 90.0)
           (-70.0 20.0)
  end
  begin
     id 5 
     name ltoes
     direction 1.53553e-011 -4.22024e-011 1   
     length 0.777832   
     axis -90 7.62852e-016 20   XYZ
    dof rx
    limits (-90.0 20.0)
  end
  begin
     id 6 
     name rhipjoint
     direction -0.727419 -0.612432 0.309497   
     length 2.50079  
     axis 0 0 0  XYZ 
  end
  begin
     id 7 
     name rfemur
     direction -0.34202 -0.939693 0   
     length 6.51665   
     axis 0 0 -20   XYZ
    dof rx ry rz
    limits (-160.0 20.0)
           (-70.0 70.0)
           (-70.0 60.0)
  end
  begin
     id 8 
     name rtibia
     direction -0.34202 -0.939693 0   
     length 6.48919   
     axis 0 0 -20   XYZ
    dof rx
    limits (-10.0 170.0)
 end
 begin
     id 9 
     name rfoot
     direction -0.112205 -0.308282 0.944655   
     length 1.68717  
     axis -90 -7.62852e-016 -20   XYZ
    dof rx rz
    limits (-45.0 90.0)
           (-20.0 70.0)
  end
  begin
     id 10 
     name rtoes
     direction -1.53583e-011 -4.21993e-011 1   
     length 0.846859   
     axis -90 -7.62852e-016 -20   XYZ
    dof rx
    limits (-90.0 20.0)
  end
  begin
     id 11 
     name lowerback
     direction -0.00119603 0.996364 -0.0851956   
     length 1.67242   
     axis 0 0 0   XYZ
    dof rx ry rz
    limits (-20.0 45.0)
           (-30.0 30.0)
           (-30.0 30.0)
  end
  begin
     id 12 
     name upperback
     direction -0.00531001 0.998318 0.0577248   
     length 1.64819   
     axis 0 0 0   XYZ
    dof rx ry rz
    limits (-20.0 45.0)
           (-30.0 30.0)
           (-30.0 30.0)
  end
  begin
     id 13 
     name thorax
     direction -0.00653676 0.995132 0.0983291   
     length 1.67429   
     axis 0 0 0   XYZ
    dof rx ry rz
    limits (-20.0 45.0)
           (-30.0 30.0)
           (-30.0 30.0)
  end
  begin
     id 14 
     name lowerneck
     direction 0.0141424 0.999886 0.00525412   
     length 1.59623   
     axis 0 0 0   XYZ
    dof rx ry rz
    limits (-20.0 45.0)
           (-30.0 30.0)
           (-30.0 30.0)
  end
  begin
     id 15 
     name upperneck
     direction -0.0640064 0.987178 -0.146232   
     length 1.59576   
     axis 0 0 0   XYZ
    dof rx ry rz
    limits (-20.0 45.0)
           (-30.0 30.0)
           (-30.0 30.0)
  end
  begin
     id 16
     name head
     direction -0.0222942 0.998496 -0.0500859  
     length 1.60959  
     axis 0 0 0   XYZ
    dof rx ry rz
    limits (-20.0 45.0)
           (-30.0 30.0)
           (-30.0 30.0)
  end
  begin
     id 17 
     name lclavicle
     direction 0.908549 0.392612 0.142806  
     length 2.80649  
     axis 0 0 0   XYZ
    dof ry rz
    limits (-20.0 10.0)
           (0.0 20.0)
  end
  begin
     id 18 
     name lhumerus
     direction 1 -4.48968e-011 1.08832e-028   
     length 4.2884   
     axis -180 -30 -90   XYZ
    dof rx ry rz
    limits (-60.0 90.0)
           (-90.0 90.0)
           (-90.0 90.0)
  end
  begin
     id 19
     name lradius
     direction 1 -4.48952e-011 -3.02642e-028   
     length 3.06552   
     axis -180 -30 -90   XYZ
    dof rx
    limits (-10.0 170.0)
  end
  begin
     id 20
     name lwrist
     direction 1 -4.49014e-011 1.58672e-027   
     length 1.53276   
     axis -1.65735e-015 90 90   XYZ
    dof ry
    limits (-180.0 0.0)
 end
  begin
     id 21 
     name lhand
     direction 1 -4.48928e-011 3.17344e-027   
     length 0.753045   
     axis -2.02492e-015 90 90   XYZ
    dof rx rz
    limits (-90.0 90.0)
           (-45.0 45.0)
  end
  begin
     id 22 
     name lfingers
     direction 1 -4.48958e-011 6.34687e-027   
     length 0.607124   
     axis -4.04985e-015 90 90   XYZ
    dof rx
    limits (0.0 90.0)
  end
  begin
     id 23
     name lthumb
     direction 0.707107 -6.34905e-011 0.707107   
     length 0.871712   
     axis -90 45 2.85299e-015   XYZ
    dof rx rz
    limits (-45.0 45.0)
           (-45.0 45.0)
  end
  begin
     id 24 
     name rclavicle
     direction -0.885098 0.45949 0.0739604   
     length 2.9478  
     axis 0 0 0   XYZ 
    dof ry rz
    limits (-10.0 20.0)
           (-20.0 0.0)
  end
  begin
     id 25 
     name rhumerus
     direction -1 -4.4898e-011 -2.61739e-027  
     length 4.52172   
     axis -180 30 90   XYZ
    dof rx ry rz
    limits (-90.0 60.0)
           (-90.0 90.0)
           (-90.0 90.0)
  end
  begin
     id 26 
     name rradius
     direction -1 -4.48945e-011 9.02552e-028   
     length 2.8914   
     axis -180 30 90   XYZ
    dof rx
    limits (-10.0 170.0)
  end
  begin
     id 27 
     name rwrist
     direction -1 -4.49018e-011 1.58672e-027   
     length 1.4457   
     axis -1.65735e-015 -90 -90   XYZ
    dof ry
    limits (-180.0 0.0)
  end
  begin
     id 28
     name rhand
     direction -1 -4.48825e-011 3.17344e-027   
     length 0.680541   
     axis -2.02492e-015 -90 -90   XYZ
    dof rx rz
    limits (-90.0 90.0)
           (-45.0 45.0)
  end
  begin
     id 29
     name rfingers
     direction -1 -4.49067e-011 6.34687e-027   
     length 0.54867   
     axis -4.04985e-015 -90 -90   XYZ
    dof rx
    limits (0.0 90.0)
  end
  begin
     id 30
     name rthumb
     direction -0.707107 -6.34833e-011 0.707107   
     length 0.787783   
     axis -90 -45 -2.85299e-015   XYZ
    dof rx rz
    limits (-45.0 45.0)
           (-45.0 45.0)
  end
:hierarchy
  begin
    root lhipjoint rhipjoint lowerback
    lhipjoint lfemur
    lfemur ltibia
    ltibia lfoot
    lfoot ltoes
    rhipjoint rfemur
    rfemur rtibia
    rtibia rfoot
    rfoot rtoes
    lowerback upperback
    upperback thorax
    thorax lowerneck lclavicle rclavicle
    lowerneck upperneck
    upperneck head
    lclavicle lhumerus
    lhumerus lradius
    lradius lwrist
    lwrist lhand lthumb
    lhand lfingers
    rclavicle rhumerus
    rhumerus rradius
    rradius rwrist
    rwrist rhand rthumb
    rhand rfingers
  end

#!OML:ASF E:\emotionWalksFemale\Project 1\Capture day 1\Session 1\Female1.ASF
:FULLY-SPECIFIED
:DEGREES
178
root 8.57787 21.3119 14.228 183.462 -4.69385 -179.329
lowerback 12.5663 0.136745 1.41073
upperback -3.27042 0.500914 1.00878
thorax -10.6189 0.178615 0.187513
lowerneck -8.19814 -3.57971 -7.44337
upperneck 4.55183 -4.26849 4.57108
head 3.26053 -2.09273 2.62265
rclavicle -1.57785e-015 -1.15295e-014
rhumerus 92.9163 -40.4424 -68.2553
rradius 41.0661
rwrist -0.853731
rhand -12.2817 -39.0103
rfingers 7.12502
rthumb 13.7856 291.466
lclavicle -1.57785e-015 -1.15295e-014
lhumerus 109.998 33.0742 79.5442
lradius 30.0207
lwrist 8.06639
lhand -17.447 -54.0179
lfingers 7.12502
lthumb 8.80405 -24.2216
rfemur -9.77943 27.5465 23.7226
rtibia 18.1197
rfoot -47.0103 -17.9709
rtoes 68.5856
lfemur -14.1113 -28.7637 -19.0559
ltibia 25.2593
lfoot -46.5425 8.90674
ltoes 69.7929
179
root 8.57458 21.3243 14.133 183.26 -4.61089 -179.128
lowerback 12.6566 0.102867 1.83019
upperback -3.13191 0.52413 1.00473
thorax -10.5151 0.16338 -0.0594708
lowerneck -8.06926 -3.47439 -7.08714
upperneck 4.70578 -4.16723 4.40329
head 3.26334 -2.04396 2.50575
rclavicle -1.29086e-014 -6.36111e-015
rhumerus 92.062 -39.5272 -67.0485
rradius 40.1692
rwrist -0.0509787
rhand -11.9144 -38.7622
rfingers 7.12502
rthumb 14.1395 291.739
lclavicle -1.29086e-014 -6.36111e-015
lhumerus 109.123 32.7517 78.4776
lradius 30.3324
lwrist 8.14706
lhand -17.3794 -54.3267
lfingers 7.12502
lthumb 8.86924 -24.5331
rfemur -10.6252 28.1136 23.2916
rtibia 17.7563
rfoot -47.2767 -18.1393
rtoes 68.4938
lfemur -14.9328 -28.0753 -18.4623
ltibia 25.2038
lfoot -45.3855 11.3522
ltoes 69.7006
180
root 8.56955 21.3276 14.0381 183.07 -4.61777 -178.979
lowerback 13.2719 0.0651751 2.05983
upperback -3.3164 0.543492 1.14213
thorax -11.0849 0.155328 -0.0442152
lowerneck -8.03015 -3.33946 -6.85844
upperneck 5.21518 -3.99976 4.05337
head 3.40157 -1.9739 2.35538
rclavicle -5.08143e-015 -7.15625e-015
rhumerus 90.9411 -38.2791 -65.2932
rradius 39.3023
rwrist 0.872118
rhand -11.6989 -38.3761
rfingers 7.12502
rthumb 14.3472 292.14
lclavicle -5.08143e-015 -7.15625e-015
lhumerus 107.716 32.5906 77.0731
lradius 30.6074
lwrist 8.38164
lhand -17.3839 -54.6008
lfingers 7.12502
lthumb 8.86491 -24.807
rfemur -11.3966 28.2965 22.8073
rtibia 17.333
rfoot -47.159 -18.4532
rtoes 68.4605
lfemur -15.7126 -27.9033 -17.9239
ltibia 25.1622
lfoot -44.4504 13.5539
ltoes 69.4901
181
root 8.5664 21.3232 13.9411 182.833 -4.51365 -178.723
lowerback 13.595 0.0298356 2.42266
upperback -3.25497 0.579419 1.28946
thorax -11.2065 0.150578 -0.097361
lowerneck -8.0041 -3.20541 -6.7799
upperneck 5.39595 -3.82426 3.91102
head 3.44106 -1.89278 2.30352
rclavicle 8.1626e-015 -2.50469e-014
rhumerus 90.3293 -37.0589 -63.8234
rradius 38.6417
rwrist 1.51995
rhand -11.5011 -38.3001
rfingers 7.12502
rthumb 14.5377 292.229
lclavicle 8.1626e-015 -2.50469e-014
lhumerus 106.428 32.8295 75.3309
lradius 31.0332
lwrist 8.94951
lhand -17.3221 -54.6163
lfingers 7.12502
lthumb 8.92453 -24.825
rfemur -12.1209 28.2079 22.4891
rtibia 16.9845
rfoot -46.3662 -19.7323
rtoes 68.2953
lfemur -16.3317 -27.8931 -17.3019
ltibia 25.0786
lfoot -43.6905 15.1482
ltoes 69.2999
182
root 8.56498 21.3012 13.8398 182.445 -4.27724 -178.554
lowerback 13.812 0.0388167 2.6791
upperback -2.99459 0.646267 1.40878
thorax -11.0409 0.17102 -0.129452
lowerneck -8.13601 -3.11176 -6.7588
upperneck 5.51206 -3.68772 3.82075
head 3.49521 -1.82814 2.27672
rclavicle 7.72775e-015 -3.53837e-014
rhumerus 89.7182 -36.0289 -62.2731
rradius 38.4258
rwrist 1.72552
rhand -11.3427 -38.5029
rfingers 7.12502
rthumb 14.6903 292.038
lclavicle 7.72775e-015 -3.53837e-014
lhumerus 105.645 32.9696 73.986
lradius 31.2717
lwrist 9.00478
lhand -17.2156 -54.6581
lfingers 7.12502
lthumb 9.02734 -24.8713
rfemur -12.6514 28.5918 22.1695
rtibia 16.7269
rfoot -46.0574 -20.7638
rtoes 68.0715
lfemur -16.6457 -27.9634 -16.8889
ltibia 24.9562
lfoot -43.2304 15.4157
ltoes 69.2815
183
root 8.56163 21.2608 13.7342 181.961 -4.18052 -178.674
lowerback 14.1238 0.0235236 2.69515
upperback -2.68505 0.635605 1.47419
thorax -10.8788 0.169529 -0.0672956
lowerneck -8.82465 -3.08079 -6.75231
upperneck 6.07189 -3.59529 3.63343
head 3.81551 -1.7899 2.21614
rclavicle 1.11319e-014 2.46493e-014
rhumerus 89.1636 -35.0864 -60.6911
rradius 38.4333
rwrist 1.98293
rhand -11.1443 -38.5324
rfingers 7.12502
rthumb 14.8815 292.022
lclavicle 1.11319e-014 2.46493e-014
lhumerus 105.227 32.9355 73.0384
lradius 31.3404
lwrist 8.84756
lhand -17.3406 -54.2316
lfingers 7.12502
lthumb 8.90672 -24.4396
rfemur -13.0434 29.6541 21.5353
rtibia 16.62
rfoot -47.2094 -20.1019
rtoes 68.034
lfemur -16.742 -28.1273 -16.9123
ltibia 24.7724
lfoot -42.7872 15.5415
ltoes 69.1682
184
root 8.5585 21.2026 13.6268 181.421 -4.19529 -178.903
lowerback 14.5412 0.0776431 2.60314
upperback -2.66612 0.706189 1.45584
thorax -11.1023 0.206333 -0.052623
lowerneck -8.45452 -3.09906 -6.50174
upperneck 6.59201 -3.66564 3.34266
head 3.91312 -1.84188 2.06896
rclavicle -1.0138e-014 -6.75868e-015
rhumerus 88.0707 -34.1273 -58.8543
rradius 38.4955
rwrist 2.15064
rhand -10.6343 -38.1812
rfingers 7.12502
rthumb 15.3728 292.41
lclavicle -1.0138e-014 -6.75868e-015
lhumerus 104.167 32.365 71.7789
lradius 31.5044
lwrist 8.8952
lhand -17.8402 -53.4902
lfingers 7.12502
lthumb 8.42458 -23.6782
rfemur -13.413 31.074 20.7622
rtibia 16.7005
rfoot -49.1467 -18.174
rtoes 68.093
lfemur -16.7363 -28.133 -17.1333
ltibia 24.5144
lfoot -41.8742 16.3554
ltoes 69.0671
185
root 8.55446 21.1337 13.5179 180.922 -4.11925 -179.128
lowerback 14.8296 0.143033 2.50824
upperback -2.6042 0.78526 1.45934
thorax -11.2018 0.249201 -0.015155
lowerneck -7.93137 -3.13467 -6.43903
upperneck 6.7709 -3.75187 3.1835
head 3.8704 -1.89863 2.00085
rclavicle -3.77691e-015 2.14687e-014
rhumerus 87.4371 -33.1011 -57.2377
rradius 38.4228
rwrist 2.01937
rhand -10.3025 -37.5968
rfingers 7.12502
rthumb 15.6923 293.02
lclavicle -3.77691e-015 2.14687e-014
lhumerus 103.086 32.0052 70.3982
lradius 31.8296
lwrist 9.22858
lhand -17.9 -52.9144
lfingers 7.12502
lthumb 8.36684 -23.1002
rfemur -13.758 31.823 20.0915
rtibia 16.8189
rfoot -50.2915 -16.7119
rtoes 68.1793
lfemur -16.7131 -27.9539 -17.3738
ltibia 24.232
lfoot -40.9893 17.313
ltoes 68.9435
186
root 8.54603 21.0593 13.4079 180.468 -4.07499 -179.253
lowerback 15.1858 0.114667 2.6262
upperback -2.54779 0.779736 1.45895
thorax -11.3468 0.23655 -0.0821256
lowerneck -7.52885 -3.09582 -6.53046
upperneck 6.74967 -3.72422 3.23294
head 3.78628 -1.88981 2.03894
rclavicle 1.05356e-014 -1.47101e-014
rhumerus 87.1432 -32.0812 -55.7836
rradius 38.2716
rwrist 1.83224
rhand -10.4602 -37.0213
rfingers 7.12502
rthumb 15.5405 293.583
lclavicle 1.05356e-014 -1.47101e-014
lhumerus 102.143 31.9213 68.8728
lradius 32.1508
lwrist 9.72985
lhand -17.247 -52.4647
lfingers 7.12502
lthumb 8.99696 -22.6766
rfemur -14.1088 32.2234 19.5652
rtibia 16.9732
rfoot -50.9689 -15.6463
rtoes 68.3302
lfemur -16.6557 -27.3816 -17.5675
ltibia 23.9084
lfoot -39.7667 18.6118
ltoes 68.5868
187
root 8.53688 20.9747 13.2971 180.034 -4.13056 -179.394
lowerback 15.6403 0.0406886 2.73238
upperback -2.48326 0.717015 1.48652
thorax -11.542 0.197515 -0.097431
lowerneck -7.54085 -2.99594 -6.77189
upperneck 6.86533 -3.58504 3.45297
head 3.83643 -1.82031 2.16828
rclavicle 7.93896e-015 -5.32743e-014
rhumerus 87.2742 -31.045 -54.8204
rradius 38.2676
rwrist 2.02179
rhand -10.2621 -36.5222
rfingers 7.12502
rthumb 15.7313 294.097
lclavicle 7.93896e-015 -5.32743e-014
lhumerus 101.348 32.0305 67.4113
lradius 32.4263
lwrist 10.1563
lhand -16.4658 -51.9711
lfingers 7.12502
lthumb 9.75077 -22.2168
rfemur -14.5786 33.054 18.9229
rtibia 17.2925
rfoot -51.8785 -14.6196
rtoes 68.4067
lfemur -16.4299 -26.1883 -17.8825
ltibia 23.4561
lfoot -37.9049 19.3194
ltoes 68.4057
